<?xml version="1.0" standalone="no"?>
<!DOCTYPE svg PUBLIC "-//W3C//DTD SVG 20010904//EN"
 "http://www.w3.org/TR/2001/REC-SVG-20010904/DTD/svg10.dtd">
<svg version="1.0" xmlns="http://www.w3.org/2000/svg"
 width="700.000000pt" height="700.000000pt" viewBox="0 0 700.000000 700.000000"
 preserveAspectRatio="xMidYMid meet">
<metadata>
Created by potrace 1.14, written by Peter Selinger 2001-2017
</metadata>
<g transform="translate(0.000000,700.000000) scale(0.100000,-0.100000)"
fill="#000000" stroke="none">
<path d="M0 3500 l0 -3500 3500 0 3500 0 0 3500 0 3500 -3500 0 -3500 0 0
-3500z m3400 0 l0 -1750 -71 0 c-85 0 -255 24 -361 51 -666 168 -1177 716
-1299 1395 -31 168 -31 440 0 608 98 542 443 1007 931 1255 229 117 495 187
718 190 l82 1 0 -1750z m465 1729 c374 -55 734 -242 1002 -522 233 -243 378
-522 455 -874 21 -96 22 -120 25 -1090 l4 -993 -871 0 -870 0 0 1751 0 1752
93 -7 c50 -4 124 -12 162 -17z"/>
</g>
</svg>
