<?xml version="1.0" standalone="no"?>
<!DOCTYPE svg PUBLIC "-//W3C//DTD SVG 20010904//EN"
 "http://www.w3.org/TR/2001/REC-SVG-20010904/DTD/svg10.dtd">
<svg version="1.0" xmlns="http://www.w3.org/2000/svg"
 width="700.000000pt" height="700.000000pt" viewBox="0 0 700.000000 700.000000"
 preserveAspectRatio="xMidYMid meet">
<metadata>
Created by potrace 1.14, written by Peter Selinger 2001-2017
</metadata>
<g transform="translate(0.000000,700.000000) scale(0.100000,-0.100000)"
fill="#000000" stroke="none">
<path d="M0 3500 l0 -3500 3500 0 3500 0 0 3500 0 3500 -3500 0 -3500 0 0
-3500z m3795 2215 c284 -47 498 -115 719 -227 514 -260 931 -747 1107 -1291
38 -118 45 -147 73 -287 26 -138 28 -154 31 -380 2 -179 -1 -250 -15 -346 -27
-181 -87 -401 -141 -521 -10 -24 -19 -46 -19 -49 0 -14 -105 -212 -155 -292
-290 -468 -776 -833 -1295 -973 -25 -7 -49 -14 -55 -15 -5 -2 -55 -12 -110
-23 -95 -19 -151 -27 -255 -36 -61 -6 -328 -6 -365 0 -16 2 -68 9 -115 15
-550 69 -1078 365 -1431 803 -43 54 -87 110 -96 125 -10 15 -20 29 -24 32 -3
3 -32 49 -64 103 -116 200 -207 420 -253 617 -51 217 -60 309 -57 565 2 121 6
236 9 255 4 19 12 62 17 95 122 727 629 1368 1316 1664 184 79 405 142 553
158 30 3 73 9 95 13 46 9 471 5 530 -5z"/>
</g>
</svg>
