<?xml version="1.0" encoding="utf-8"?>
<!-- Generator: Adobe Illustrator 27.5.0, SVG Export Plug-In . SVG Version: 6.00 Build 0)  -->
<svg version="1.1" id="Capa_1" xmlns="http://www.w3.org/2000/svg" xmlns:xlink="http://www.w3.org/1999/xlink" x="0px" y="0px"
	 viewBox="0 0 1048 1048" style="enable-background:new 0 0 1048 1048;" xml:space="preserve">
<style type="text/css">
	.st0{fill:#FFFFFF;}
</style>
<g>
	<g>
		<g>
			<path class="st0" d="M817.6,324.3l-4.9,5.6v-36.2c0-37.2-30.4-67.6-67.7-67.6H256.6c-37.2,0-67.6,30.4-67.6,67.6v488.5
				c0,37.2,30.5,67.6,67.7,67.6h488.5c37.2,0,67.7-30.4,67.7-67.6V550.9L927,419.2L817.6,324.3z M688.2,694.7l73.5-84.8v181.9H240.2
				V366.3h521.4v22.8L578.9,599.9L688.2,694.7z"/>
			<path class="st0" d="M979.6,321.5l-72.9-63.1c-10-8.7-24.2-8.9-31.4-0.5l-45.7,52.7l109.4,94.8l45.6-52.7
				C992.1,344.2,989.8,330.1,979.6,321.5z"/>
			<polygon class="st0" points="532.6,754.4 538.2,759.2 675.9,709 566.6,614.1 			"/>
		</g>
	</g>
</g>
</svg>
