<?xml version="1.0" encoding="UTF-8"?>
<svg id="Layer_1" data-name="Layer 1" xmlns="http://www.w3.org/2000/svg" version="1.1" viewBox="0 0 411.6 134.3">
  <defs>
    <style>
      .cls-1 {
        fill: #535353;
      }

      .cls-1, .cls-2 {
        stroke-width: 0px;
      }

      .cls-2 {
        fill: #d34136;
      }
    </style>
  </defs>
  <g>
    <path class="cls-1" d="M67.1,134.1C30.1,134.1,0,104,0,67S30.1,0,67.1,0"/>
    <path class="cls-2" d="M142.2,67v67.1h-67.1V0c37,0,67.1,30.1,67.1,67.1Z"/>
  </g>
  <g>
    <path class="cls-1" d="M178.9,67V.7h14v54.8h28.4v11.5h-42.4Z"/>
    <path class="cls-1" d="M271.5.8h14v43.1c0,4.8-1.2,9-3.5,12.6-2.3,3.6-5.5,6.4-9.7,8.5-4.2,2-8.9,3.1-14.4,3.1s-10.3-1.1-14.4-3.1c-4.2-2-7.4-4.8-9.7-8.5-2.3-3.6-3.5-7.8-3.5-12.6V.8h14v41.9c0,2.5.5,4.8,1.6,6.7,1.1,2,2.7,3.5,4.7,4.6s4.4,1.7,7.1,1.7,5.1-.5,7.1-1.7c2-1.1,3.6-2.7,4.7-4.6,1.1-2,1.6-4.2,1.6-6.7V.8h.3Z"/>
    <path class="cls-1" d="M297,67V.7h44.7v11.5h-30.6v15.8h28.3v11.5h-28.3v15.8h30.7v11.5h-44.8Z"/>
    <path class="cls-1" d="M396.7,22.2c-.4-1.6-1.1-3-1.9-4.2s-1.9-2.3-3-3.1c-1.2-.8-2.5-1.5-4-2-1.5-.4-3.1-.7-5-.7-3.4,0-6.3.8-8.9,2.5s-4.6,4.2-5.9,7.4c-1.5,3.2-2.1,7.1-2.1,11.7s.7,8.6,2.1,11.8c1.3,3.2,3.4,5.6,5.9,7.4s5.6,2.5,9.1,2.5,5.9-.5,8.2-1.7,4-2.7,5.2-4.8c1.2-2,1.7-4.6,1.7-7.4l2.8.4h-17.3v-10.6h27.8v8.3c0,5.8-1.2,10.9-3.6,15-2.4,4.2-5.9,7.4-10.2,9.7s-9.3,3.4-14.8,3.4-11.7-1.3-16.4-4.2c-4.7-2.7-8.3-6.7-11-11.7-2.7-5.1-3.9-11.1-3.9-18.1s.8-10.2,2.3-14.4c1.6-4.2,3.8-7.8,6.6-10.7s6.2-5.1,9.9-6.7c3.8-1.5,7.8-2.3,12.2-2.3s7.2.5,10.5,1.6,6.2,2.7,8.6,4.6c2.5,2,4.6,4.3,6.2,7.1,1.6,2.7,2.7,5.8,3.1,9h-14.4Z"/>
    <path class="cls-1" d="M178.9,77.2h6l20.5,49.4h.5l20.5-49.4h6v56.8h-4.8v-45.8h-.4l-19.2,45.8h-4.7l-19.2-45.8h-.4v45.8h-4.8v-56.8h-.1Z"/>
    <path class="cls-1" d="M247.6,134v-56.8h32.9v4.7h-27.8v21.3h26v4.7h-26v21.5h28.3v4.7h-33.4Z"/>
    <path class="cls-1" d="M310.5,134h-16.6v-56.8h17.6c5.4,0,10.1,1.1,14,3.4s6.8,5.5,8.9,9.7,3.1,9.3,3.1,15.2-1.1,11-3.1,15.3c-2.1,4.3-5.1,7.5-9.1,9.8-4.2,2.3-9,3.5-14.6,3.5ZM299.1,129.3h11.1c4.8,0,9-.9,12.2-2.8,3.2-1.9,5.8-4.7,7.4-8.2,1.6-3.6,2.4-7.8,2.4-12.7s-.8-9.1-2.4-12.6c-1.6-3.5-4-6.2-7.1-8.1s-7-2.8-11.5-2.8h-12.1v47.2Z"/>
    <path class="cls-1" d="M355.1,77.2v56.8h-5.2v-56.8h5.2Z"/>
    <path class="cls-1" d="M370.2,134h-5.4l20.7-56.8h5.5l20.7,56.8h-5.4l-17.8-50.1h-.4l-17.8,50.1ZM374.1,112.2h28.2v4.7h-28.2v-4.7Z"/>
  </g>
</svg>