<?xml version="1.0" encoding="UTF-8"?>
<svg id="Layer_1" data-name="Layer 1" xmlns="http://www.w3.org/2000/svg" viewBox="0 0 915.26 134.33">
  <defs>
    <style>
      .cls-1 {
        fill: #535353;
      }

      .cls-1, .cls-2 {
        stroke-width: 0px;
      }

      .cls-2 {
        fill: #d3414b;
      }
    </style>
  </defs>
  <g>
    <path class="cls-1" d="M178.09,110.64V23.65h18.39v71.83h37.29v15.16h-55.68Z"/>
    <path class="cls-1" d="M299.69,23.65h18.39v56.49c0,6.34-1.51,11.89-4.52,16.65-3.02,4.76-7.23,8.46-12.64,11.11-5.41,2.65-11.71,3.97-18.9,3.97s-13.53-1.32-18.94-3.97c-5.41-2.65-9.61-6.35-12.62-11.11-3-4.76-4.5-10.31-4.5-16.65V23.65h18.39v54.92c0,3.31.73,6.26,2.19,8.83,1.46,2.58,3.52,4.6,6.18,6.07,2.66,1.48,5.76,2.21,9.3,2.21s6.68-.73,9.32-2.21c2.65-1.47,4.7-3.49,6.16-6.07,1.46-2.58,2.19-5.52,2.19-8.83V23.65Z"/>
    <path class="cls-1" d="M333.2,110.64V23.65h58.61v15.16h-40.22v20.73h37.21v15.16h-37.21v20.77h40.39v15.16h-58.78Z"/>
    <path class="cls-1" d="M464.15,51.77c-.6-2.07-1.43-3.9-2.51-5.5-1.08-1.6-2.39-2.96-3.93-4.08s-3.3-1.98-5.27-2.57c-1.97-.59-4.14-.89-6.52-.89-4.45,0-8.35,1.1-11.7,3.31-3.36,2.21-5.97,5.41-7.84,9.62s-2.8,9.34-2.8,15.4.92,11.21,2.76,15.46c1.84,4.25,4.44,7.48,7.81,9.71s7.35,3.34,11.94,3.34c4.16,0,7.72-.74,10.68-2.23,2.96-1.49,5.23-3.59,6.8-6.31s2.36-5.93,2.36-9.64l3.74.55h-22.43v-13.85h36.4v10.96c0,7.65-1.61,14.21-4.84,19.69-3.23,5.48-7.68,9.7-13.34,12.66-5.66,2.96-12.15,4.44-19.45,4.44-8.15,0-15.32-1.8-21.49-5.42-6.17-3.61-10.98-8.75-14.42-15.42-3.44-6.67-5.16-14.59-5.16-23.76,0-7.05,1.03-13.34,3.08-18.88s4.93-10.23,8.64-14.08c3.71-3.85,8.03-6.78,12.96-8.79,4.92-2.01,10.26-3.02,16.01-3.02,4.93,0,9.51.72,13.76,2.15,4.25,1.43,8.02,3.45,11.32,6.05,3.3,2.61,5.99,5.7,8.09,9.28,2.1,3.58,3.44,7.52,4.04,11.83h-18.69Z"/>
    <path class="cls-1" d="M507.68,111.74c-2.8,0-5.2-1-7.2-2.99-2-1.99-3-4.4-3-7.2s1-5.15,3-7.14c1.99-1.98,4.4-2.97,7.2-2.97s5.1.99,7.13,2.97c2.04,1.98,3.06,4.36,3.06,7.14,0,1.87-.47,3.57-1.42,5.12-.95,1.54-2.19,2.78-3.72,3.69-1.53.92-3.21,1.38-5.05,1.38Z"/>
    <path class="cls-1" d="M533.04,23.65h22.68l23.95,58.45h1.02l23.95-58.45h22.68v86.99h-17.84v-56.62h-.72l-22.51,56.2h-12.15l-22.51-56.41h-.72v56.83h-17.84V23.65Z"/>
    <path class="cls-1" d="M642.45,110.64V23.65h58.61v15.16h-40.22v20.73h37.21v15.16h-37.21v20.77h40.39v15.16h-58.78Z"/>
    <path class="cls-1" d="M746.56,110.64h-30.84V23.65h31.09c8.75,0,16.28,1.74,22.6,5.2,6.31,3.47,11.18,8.45,14.59,14.93,3.41,6.49,5.12,14.24,5.12,23.28s-1.71,16.85-5.12,23.36c-3.41,6.51-8.3,11.51-14.65,14.99-6.36,3.48-13.95,5.23-22.79,5.23ZM734.11,94.88h11.68c5.44,0,10.02-.97,13.74-2.91,3.72-1.94,6.53-4.96,8.41-9.05,1.88-4.09,2.82-9.38,2.82-15.86s-.94-11.68-2.82-15.76-4.68-7.08-8.39-9c-3.71-1.93-8.28-2.89-13.72-2.89h-11.72v55.47Z"/>
    <path class="cls-1" d="M821.1,23.65v86.99h-18.39V23.65h18.39Z"/>
    <path class="cls-1" d="M851.25,110.64h-19.71l30.03-86.99h23.7l29.99,86.99h-19.71l-21.79-67.11h-.68l-21.83,67.11ZM850.02,76.44h46.55v14.36h-46.55v-14.36Z"/>
  </g>
  <path class="cls-2" d="M0,0v134.33h134.33V0H0ZM67.17,110.01c-23.66,0-42.85-19.18-42.85-42.84s19.19-42.84,42.85-42.84,42.84,19.18,42.84,42.84-19.18,42.84-42.84,42.84Z"/>
</svg>